<svg width="800" height="500" xmlns="http://www.w3.org/2000/svg">
  <defs>
    <linearGradient id="skyGradient" x1="0%" y1="0%" x2="0%" y2="100%">
      <stop offset="0%" style="stop-color:#6c5ce7;stop-opacity:1" />
      <stop offset="100%" style="stop-color:#00cec9;stop-opacity:1" />
    </linearGradient>
  </defs>
  <rect width="800" height="500" fill="url(#skyGradient)" />
  
  <!-- Stadtsilhouette -->
  <polygon points="0,500 0,300 50,320 100,290 150,310 200,280 250,300 300,270 350,290 400,260 450,280 500,250 550,270 600,240 650,260 700,230 750,250 800,220 800,500" fill="#1e272e"/>
  
  <!-- Straßen -->
  <rect x="350" y="320" width="100" height="180" fill="#34495e" />
  <rect x="200" y="350" width="400" height="30" fill="#34495e" />
  
  <!-- Autos -->
  <rect x="380" y="400" width="40" height="20" rx="5" fill="#e74c3c" />
  <rect x="280" y="355" width="40" height="20" rx="5" fill="#3498db" />
  <rect x="480" y="355" width="40" height="20" rx="5" fill="#2ecc71" />
  
  <!-- Gebäude-Details -->
  <rect x="360" y="330" width="15" height="15" fill="#f1c40f" />
  <rect x="385" y="330" width="15" height="15" fill="#f1c40f" />
  <rect x="410" y="330" width="15" height="15" fill="#f1c40f" />
  <rect x="360" y="355" width="15" height="15" fill="#f1c40f" />
  <rect x="385" y="355" width="15" height="15" fill="#f1c40f" />
  <rect x="410" y="355" width="15" height="15" fill="#f1c40f" />
  
  <!-- Server-Name -->
  <text x="400" y="150" font-family="Arial" font-size="40" font-weight="bold" fill="white" text-anchor="middle">Sentoga City</text>
  <text x="400" y="190" font-family="Arial" font-size="20" fill="white" text-anchor="middle">FiveM Roleplay Server</text>
</svg>
